<?xml version="1.0" encoding="UTF-8" standalone="no"?>
<svg
   xmlns:dc="http://purl.org/dc/elements/1.1/"
   xmlns:cc="http://creativecommons.org/ns#"
   xmlns:rdf="http://www.w3.org/1999/02/22-rdf-syntax-ns#"
   xmlns:svg="http://www.w3.org/2000/svg"
   xmlns="http://www.w3.org/2000/svg"
   xmlns:sodipodi="http://sodipodi.sourceforge.net/DTD/sodipodi-0.dtd"
   xmlns:inkscape="http://www.inkscape.org/namespaces/inkscape"
   width="210mm"
   height="297mm"
   viewBox="0 0 210 297"
   version="1.1"
   id="svg8"
   inkscape:version="1.0.2 (e86c870879, 2021-01-15)"
   sodipodi:docname="mylogo.svg">
  <defs
     id="defs2" />
  <sodipodi:namedview
     id="base"
     pagecolor="#ffffff"
     bordercolor="#666666"
     borderopacity="1.0"
     inkscape:pageopacity="0.0"
     inkscape:pageshadow="2"
     inkscape:zoom="0.50551279"
     inkscape:cx="480.69049"
     inkscape:cy="401.29762"
     inkscape:document-units="mm"
     inkscape:current-layer="layer1"
     inkscape:document-rotation="0"
     showgrid="true"
     inkscape:window-width="1920"
     inkscape:window-height="1037"
     inkscape:window-x="0"
     inkscape:window-y="25"
     inkscape:window-maximized="1"
     units="mm" />
  <metadata
     id="metadata5">
    <rdf:RDF>
      <cc:Work
         rdf:about="">
        <dc:format>image/svg+xml</dc:format>
        <dc:type
           rdf:resource="http://purl.org/dc/dcmitype/StillImage" />
        <dc:title />
      </cc:Work>
    </rdf:RDF>
  </metadata>
  <g
     inkscape:label="Layer 1"
     inkscape:groupmode="layer"
     id="layer1">
    <path
       id="path98"
       style="fill:#ea9085;fill-rule:evenodd;stroke-width:0;fill-opacity:1"
       d="M 104.98712,2.3421188e-7 A 104.60614,104.60614 0 0 0 0.3937299,104.60567 104.60614,104.60614 0 0 0 105.00052,209.21252 104.60614,104.60614 0 0 0 209.60627,104.60567 104.60614,104.60614 0 0 0 105.00052,2.3421188e-7 a 104.60614,104.60614 0 0 0 -0.014,0 z M 171.76942,46.4469 v 116.3187 h -27.58411 v -55.16817 l -17.67974,15.66602 -21.18353,18.77102 -39.548565,-34.89571 V 70.41601 l 39.548565,34.72865 z M 38.230567,104.27291 65.814708,128.70046 V 162.7656 H 38.230567 Z" />
  </g>
  <g
     inkscape:groupmode="layer"
     id="layer2"
     inkscape:label="Layer 2"
     style="display:none"
     sodipodi:insensitive="true">
    <path
       style="font-style:normal;font-variant:normal;font-weight:normal;font-stretch:normal;font-size:10.5833px;line-height:1.25;font-family:Mexon;-inkscape-font-specification:Mexon;fill:#1a1a1a;fill-opacity:1;stroke:none;stroke-width:0.271333"
       d="m 223.52068,4.7338863 h 1.80164 V 2.5089677 l -1.80164,-1.59543806 z"
       id="path82-0" />
    <path
       id="path40-6"
       style="font-style:normal;font-variant:normal;font-weight:normal;font-stretch:normal;font-size:10.5833px;line-height:1.25;font-family:Mexon;-inkscape-font-specification:Mexon;fill:#1a1a1a;fill-opacity:1;stroke:none;stroke-width:0.271333"
       d="m 229.32019,2.1238707 -1.38359,-1.18341336 -0.0339,0.029952 -2.58309,-2.26829084 V 1.100651 l 2.58309,2.2791935 z" />
    <path
       id="path93-2"
       style="font-style:normal;font-variant:normal;font-weight:normal;font-stretch:normal;font-size:10.5833px;line-height:1.25;font-family:Mexon;-inkscape-font-specification:Mexon;fill:#1a1a1a;fill-opacity:1;stroke:none;stroke-width:0.271333"
       d="m 232.24272,-2.8634052 -4.33997,3.83381474 1.38359,1.18341466 1.15474,-1.0232208 v 3.6032829 h 1.80164 z" />
  </g>
</svg>
